<svg xmlns="http://www.w3.org/2000/svg" viewBox="0 0 1024 1024">
<path d="M 680 320 679 321 679 322 678 323 678 324 677 325 677 326 676 327 676 328 675 329 675 330 674 331 674 332 673 333 673 334 672 335 672 336 671 337 671 338 670 339 670 340 669 341 669 342 668 343 668 344 667 345 667 346 666 347 666 348 665 349 665 350 664 351 664 352 663 353 663 354 662 355 662 356 661 357 661 358 660 359 660 360 659 361 659 362 658 363 658 364 657 365 657 366 656 367 656 368 655 369 655 370 654 371 654 372 653 373 653 374 652 375 652 376 651 377 651 378 650 379 650 380 649 381 649 382 648 383 648 384 647 385 647 386 646 387 646 388 645 389 645 390 644 391 644 392 643 393 643 394 642 395 642 396 641 397 641 398 640 399 640 400 639 401 639 402 638 403 638 404 637 405 637 406 636 407 636 408 634 410 634 412 633 413 633 414 632 415 632 416 631 417 631 418 630 419 630 420 628 422 628 423 627 424 627 425 626 426 626 427 625 428 625 429 624 430 624 431 623 432 623 433 622 434 622 435 621 436 621 437 620 438 620 439 619 440 619 441 618 442 618 443 617 444 617 445 616 446 616 447 615 448 615 449 614 450 614 451 613 452 613 453 612 454 612 455 611 456 611 457 610 458 610 459 609 460 609 461 607 463 607 464 606 465 606 466 605 467 605 468 604 469 604 470 603 471 603 472 602 473 602 474 601 475 601 476 600 477 600 478 599 479 599 480 598 481 598 482 597 483 597 484 596 485 596 486 594 488 594 489 593 490 593 491 592 492 592 493 591 494 591 495 590 496 590 497 589 498 589 499 588 500 588 501 587 502 587 503 585 505 585 506 584 507 584 508 583 509 583 510 582 511 582 512 581 513 581 514 580 515 580 516 579 517 579 518 577 520 577 521 576 522 576 523 575 524 575 525 574 526 574 527 573 528 573 529 571 531 571 532 570 533 570 534 569 535 569 536 568 537 568 538 566 540 566 541 565 542 565 543 564 544 564 545 562 547 562 548 561 549 561 550 560 551 560 552 559 553 559 554 557 556 557 557 556 558 556 559 554 561 554 562 553 563 553 564 552 565 552 566 551 567 551 568 549 570 549 571 548 572 548 573 547 574 547 575 545 577 545 578 544 579 544 580 542 582 542 583 541 584 541 585 540 586 540 587 538 589 538 590 537 591 537 592 536 593 536 594 534 596 534 597 533 598 533 599 532 600 532 601 530 603 530 604 529 605 529 606 528 607 528 608 526 610 526 611 525 612 525 613 524 614 524 615 522 617 522 618 521 619 521 620 519 622 519 623 518 624 518 625 517 626 517 627 515 629 515 630 514 631 514 632 512 634 512 635 511 636 511 637 510 638 510 639 508 641 508 642 507 643 507 644 506 645 506 646 504 648 504 649 503 650 503 651 501 653 501 654 500 655 500 656 499 657 499 658 497 660 497 661 496 662 496 663 494 665 494 666 493 667 493 668 491 670 491 671 490 672 490 673 489 674 489 675 487 677 487 678 486 679 486 680 484 682 484 683 483 684 483 685 482 686 482 687 480 689 480 690 479 691 479 692 477 694 477 695 476 696 476 697 474 699 474 700 473 701 473 702 472 703 472 704 470 706 470 707 469 708 469 709 467 711 467 712 466 713 466 714 465 715 465 716 463 718 463 719 461 721 461 722 460 723 460 724 459 725 459 726 457 728 457 729 456 730 456 731 455 732 455 733 454 734 454 735 541 735 541 734 542 733 542 732 544 730 544 729 545 728 545 727 546 726 546 725 547 724 547 723 549 721 549 720 550 719 550 718 552 716 552 715 553 714 553 713 554 712 554 711 556 709 556 708 557 707 557 706 558 705 558 704 560 702 560 701 561 700 561 699 562 698 562 697 563 696 563 695 565 693 565 692 566 691 566 690 567 689 567 688 569 686 569 685 570 684 570 683 572 681 572 680 573 679 573 678 574 677 574 676 576 674 576 673 577 672 577 671 578 670 578 669 580 667 580 666 581 665 581 664 583 662 583 661 584 660 584 659 585 658 585 657 586 656 586 655 588 653 588 652 589 651 589 650 590 649 590 648 592 646 592 645 593 644 593 643 594 642 594 641 595 640 595 639 597 637 597 636 598 635 598 634 600 632 600 631 601 630 601 629 602 628 602 627 604 625 604 624 606 622 606 621 607 620 607 619 608 618 608 617 609 616 609 615 610 614 610 613 611 612 611 611 613 609 613 608 614 607 614 606 616 604 616 603 617 602 617 601 618 600 618 599 619 598 619 597 621 595 621 594 622 593 622 592 623 591 623 590 624 589 624 588 626 586 626 585 627 584 627 583 628 582 628 581 629 580 629 579 631 577 631 575 633 573 633 572 634 571 634 570 635 569 635 568 636 567 636 566 638 564 638 563 639 562 639 561 640 560 640 559 641 558 641 557 643 555 643 554 644 553 644 552 645 551 645 550 647 548 647 547 648 546 648 544 650 542 650 541 651 540 651 539 652 538 652 537 653 536 653 535 654 534 654 533 656 531 656 530 657 529 657 528 658 527 658 526 659 525 659 524 660 523 660 522 661 521 661 520 662 519 662 518 664 516 664 514 665 513 665 512 667 510 667 509 668 508 668 507 669 506 669 505 670 504 670 503 671 502 671 501 672 500 672 499 673 498 673 497 674 496 674 495 675 494 675 493 677 491 677 490 678 489 678 488 679 487 679 486 680 485 680 484 681 483 681 482 682 481 682 480 683 479 683 478 684 477 684 476 686 474 686 473 687 472 687 471 688 470 688 469 689 468 689 467 690 466 690 465 691 464 691 463 692 462 692 461 693 460 693 459 694 458 694 457 695 456 695 455 697 453 697 452 698 451 698 450 699 449 699 448 700 447 700 446 701 445 701 444 702 443 702 442 703 441 703 440 704 439 704 438 705 437 705 436 706 435 706 434 707 433 707 432 708 431 708 430 710 428 710 427 711 426 711 425 712 424 712 423 713 422 713 421 714 420 714 419 715 418 715 417 716 416 716 415 717 414 717 413 718 412 718 411 719 410 719 409 720 408 720 407 722 405 722 404 723 403 723 402 724 401 724 400 725 399 725 398 726 397 726 396 727 395 727 394 728 393 728 392 730 390 730 388 732 386 732 385 733 384 733 383 734 382 734 381 735 380 735 379 736 378 736 377 737 376 737 375 739 373 739 371 740 370 740 369 742 367 742 366 743 365 743 364 744 363 744 362 745 361 745 360 746 359 746 358 747 357 747 356 749 354 749 353 750 352 750 351 751 350 751 349 752 348 752 347 753 346 753 345 754 344 754 343 755 342 755 341 757 339 757 338 758 337 758 336 759 335 759 334 760 333 760 332 761 331 761 330 762 329 762 328 763 327 763 326 765 324 765 323 766 322 766 321 765 321 764 320 763 321 762 320 682 320 681 321 Z" fill="#ede3d8"/>
<path d="M 273 320 272 321 271 321 271 403 383 403 384 404 384 735 400 735 401 734 401 733 403 731 403 730 404 729 404 728 406 726 406 725 407 724 407 723 409 721 409 720 410 719 410 718 411 717 411 716 413 714 413 713 414 712 414 711 416 709 416 708 417 707 417 706 418 705 418 704 420 702 420 701 421 700 421 699 423 697 423 696 424 695 424 694 426 692 426 691 427 690 427 689 429 687 429 686 430 685 430 684 431 683 431 682 433 680 433 679 434 678 434 677 436 675 436 674 437 673 437 672 439 670 439 669 440 668 440 667 441 666 441 665 443 663 443 662 444 661 444 660 446 658 446 657 447 656 447 655 448 654 448 653 450 651 450 650 451 649 451 648 453 646 453 645 454 644 454 643 455 642 455 641 457 639 457 638 458 637 458 636 460 634 460 633 461 632 461 631 463 629 463 628 464 627 464 626 465 625 465 624 467 622 467 621 468 620 468 405 470 403 580 403 580 321 578 321 577 320 574 320 573 321 571 321 570 320 560 320 559 321 549 321 548 320 544 320 543 321 529 321 528 320 527 321 518 321 517 320 516 320 515 321 504 321 503 320 502 320 501 321 491 321 490 320 488 320 487 321 465 321 464 320 463 321 418 321 417 320 416 320 415 321 408 321 407 320 405 320 404 321 376 321 375 320 373 320 372 321 364 321 363 320 335 320 334 321 329 321 328 320 Z" fill="#ede3d8"/>
</svg>